<svg xmlns="http://www.w3.org/2000/svg" width="1200" height="630" viewBox="0 0 1200 630">
  <!-- Background -->
  <rect width="1200" height="630" fill="#0d1117"/>

  <!-- Card glow effect -->
  <rect x="60" y="60" width="1080" height="510" rx="16" fill="#161b22" stroke="#30363d" stroke-width="1"/>

  <!-- Emerald accent line top -->
  <rect x="60" y="60" width="1080" height="4" rx="2" fill="#10b981"/>

  <!-- Terminal prompt icon (large) -->
  <text x="100" y="220" font-family="JetBrains Mono, monospace" font-size="96" font-weight="bold" fill="#10b981">&gt;_</text>

  <!-- Main title -->
  <text x="100" y="310" font-family="Inter, sans-serif" font-size="52" font-weight="700" fill="#e6edf3">Terminal Learning</text>

  <!-- Subtitle -->
  <text x="100" y="375" font-family="Inter, sans-serif" font-size="28" font-weight="400" fill="#8b949e">Apprends le terminal pas à pas — gratuit, open source</text>

  <!-- Feature pills -->
  <rect x="100" y="420" width="180" height="40" rx="8" fill="#10b981" fill-opacity="0.1" stroke="#10b981" stroke-opacity="0.3" stroke-width="1"/>
  <text x="190" y="446" font-family="JetBrains Mono, monospace" font-size="16" fill="#10b981" text-anchor="middle">6 modules</text>

  <rect x="296" y="420" width="220" height="40" rx="8" fill="#10b981" fill-opacity="0.1" stroke="#10b981" stroke-opacity="0.3" stroke-width="1"/>
  <text x="406" y="446" font-family="JetBrains Mono, monospace" font-size="16" fill="#10b981" text-anchor="middle">terminal réel</text>

  <rect x="532" y="420" width="240" height="40" rx="8" fill="#10b981" fill-opacity="0.1" stroke="#10b981" stroke-opacity="0.3" stroke-width="1"/>
  <text x="652" y="446" font-family="JetBrains Mono, monospace" font-size="16" fill="#10b981" text-anchor="middle">100% gratuit</text>

  <!-- URL bottom right -->
  <text x="1100" y="530" font-family="JetBrains Mono, monospace" font-size="20" fill="#30363d" text-anchor="end">terminal-learning.vercel.app</text>

  <!-- Grid dots decoration -->
  <g fill="#30363d" opacity="0.4">
    <circle cx="950" cy="160" r="2"/><circle cx="980" cy="160" r="2"/><circle cx="1010" cy="160" r="2"/><circle cx="1040" cy="160" r="2"/><circle cx="1070" cy="160" r="2"/><circle cx="1100" cy="160" r="2"/>
    <circle cx="950" cy="190" r="2"/><circle cx="980" cy="190" r="2"/><circle cx="1010" cy="190" r="2"/><circle cx="1040" cy="190" r="2"/><circle cx="1070" cy="190" r="2"/><circle cx="1100" cy="190" r="2"/>
    <circle cx="950" cy="220" r="2"/><circle cx="980" cy="220" r="2"/><circle cx="1010" cy="220" r="2"/><circle cx="1040" cy="220" r="2"/><circle cx="1070" cy="220" r="2"/><circle cx="1100" cy="220" r="2"/>
    <circle cx="950" cy="250" r="2"/><circle cx="980" cy="250" r="2"/><circle cx="1010" cy="250" r="2"/><circle cx="1040" cy="250" r="2"/><circle cx="1070" cy="250" r="2"/><circle cx="1100" cy="250" r="2"/>
    <circle cx="950" cy="280" r="2"/><circle cx="980" cy="280" r="2"/><circle cx="1010" cy="280" r="2"/><circle cx="1040" cy="280" r="2"/><circle cx="1070" cy="280" r="2"/><circle cx="1100" cy="280" r="2"/>
    <circle cx="950" cy="310" r="2"/><circle cx="980" cy="310" r="2"/><circle cx="1010" cy="310" r="2"/><circle cx="1040" cy="310" r="2"/><circle cx="1070" cy="310" r="2"/><circle cx="1100" cy="310" r="2"/>
  </g>

  <!-- Animated terminal lines (decorative) -->
  <rect x="840" y="350" width="260" height="1" fill="#30363d" opacity="0.6"/>
  <text x="850" y="385" font-family="JetBrains Mono, monospace" font-size="14" fill="#8b949e">$ ls -la /home/user</text>
  <text x="850" y="410" font-family="JetBrains Mono, monospace" font-size="14" fill="#10b981">drwxr-xr-x  user  docs</text>
  <text x="850" y="435" font-family="JetBrains Mono, monospace" font-size="14" fill="#10b981">-rw-r--r--  user  notes.txt</text>
  <text x="850" y="460" font-family="JetBrains Mono, monospace" font-size="14" fill="#8b949e">$ <tspan fill="#10b981" opacity="0.8">▋</tspan></text>
</svg>
